<svg width="520" height="520" viewBox="0 0 520 520" fill="none" xmlns="http://www.w3.org/2000/svg">
  <path d="M190.755 20.5038C202.849 9.17985 221.834 9.80482 233.158 21.8997L499.29 306.15C510.614 318.245 509.989 337.229 497.894 348.553C485.799 359.877 466.814 359.252 455.491 347.157L189.359 62.9072C178.035 50.8124 178.66 31.8277 190.755 20.5038Z" fill="#0E57C3"/>
  <path d="M29.1531 168.055C41.2479 156.731 60.2326 157.356 71.5565 169.45L329.219 444.655C340.543 456.75 339.918 475.734 327.823 487.058C315.729 498.382 296.744 497.757 285.42 485.662L27.7572 210.458C16.4333 198.363 17.0582 179.378 29.1531 168.055Z" fill="#0E57C3"/>
  <rect y="370.695" width="524.782" height="60" rx="30" transform="rotate(-43.1145 0 370.695)" fill="#0E57C3"/>
  <path d="M336.359 339.564C325.035 327.469 325.66 308.484 337.755 297.16L457.013 185.504C469.107 174.18 488.092 174.805 499.416 186.9C510.74 198.995 510.115 217.98 498.02 229.304L378.763 340.96C366.668 352.284 347.683 351.659 336.359 339.564Z" fill="#0E57C3"/>
</svg>
