<svg width="1978" height="563" viewBox="0 0 1978 563" fill="none" xmlns="http://www.w3.org/2000/svg">
<path d="M190.755 56.5038C202.849 45.1799 221.834 45.8048 233.158 57.8997L499.29 342.15C510.614 354.245 509.989 373.229 497.894 384.553C485.799 395.877 466.814 395.252 455.491 383.157L189.359 98.9072C178.035 86.8124 178.66 67.8277 190.755 56.5038Z" fill="#0E57C3"/>
<path d="M29.1531 204.055C41.2479 192.731 60.2326 193.356 71.5565 205.45L329.219 480.655C340.543 492.75 339.918 511.734 327.823 523.058C315.729 534.382 296.744 533.757 285.42 521.662L27.7572 246.458C16.4333 234.363 17.0582 215.378 29.1531 204.055Z" fill="#0E57C3"/>
<rect y="406.695" width="524.782" height="60" rx="30" transform="rotate(-43.1145 0 406.695)" fill="#0E57C3"/>
<path d="M336.359 375.564C325.035 363.469 325.66 344.484 337.755 333.16L457.013 221.504C469.107 210.18 488.092 210.805 499.416 222.9C510.74 234.995 510.115 253.98 498.02 265.304L378.763 376.96C366.668 388.284 347.683 387.659 336.359 375.564Z" fill="#0E57C3"/>
<path d="M677.1 450V135H800.4C822.9 135 843.15 138.75 861.15 146.25C879.45 153.75 895.05 164.55 907.95 178.65C920.85 192.75 930.75 209.4 937.65 228.6C944.55 247.8 948 269.1 948 292.5C948 315.9 944.55 337.35 937.65 356.85C930.75 376.05 920.85 392.7 907.95 406.8C895.35 420.6 879.9 431.25 861.6 438.75C843.3 446.25 822.9 450 800.4 450H677.1ZM725.7 408.15L724.35 403.2H798.15C814.05 403.2 828.15 400.65 840.45 395.55C853.05 390.45 863.55 383.25 871.95 373.95C880.65 364.35 887.25 352.65 891.75 338.85C896.25 325.05 898.5 309.6 898.5 292.5C898.5 275.4 896.25 260.1 891.75 246.6C887.25 232.8 880.65 221.1 871.95 211.5C863.25 201.9 852.75 194.55 840.45 189.45C828.15 184.35 814.05 181.8 798.15 181.8H723L725.7 177.75V408.15ZM1092.92 454.5C1073.42 454.5 1055.57 449.1 1039.37 438.3C1023.47 427.5 1010.72 412.8 1001.12 394.2C991.521 375.6 986.721 354.6 986.721 331.2C986.721 307.5 991.521 286.5 1001.12 268.2C1011.02 249.6 1024.22 235.05 1040.72 224.55C1057.52 214.05 1076.27 208.8 1096.97 208.8C1109.27 208.8 1120.52 210.6 1130.72 214.2C1140.92 217.8 1149.77 222.9 1157.27 229.5C1165.07 235.8 1171.37 243.15 1176.17 251.55C1181.27 259.95 1184.42 268.95 1185.62 278.55L1175.27 274.95V213.75H1222.07V450H1175.27V393.75L1186.07 390.6C1184.27 398.7 1180.52 406.65 1174.82 414.45C1169.42 421.95 1162.37 428.7 1153.67 434.7C1145.27 440.7 1135.82 445.5 1125.32 449.1C1115.12 452.7 1104.32 454.5 1092.92 454.5ZM1105.07 411.75C1119.17 411.75 1131.62 408.3 1142.42 401.4C1153.22 394.5 1161.62 385.05 1167.62 373.05C1173.92 360.75 1177.07 346.8 1177.07 331.2C1177.07 315.9 1173.92 302.25 1167.62 290.25C1161.62 278.25 1153.22 268.8 1142.42 261.9C1131.62 255 1119.17 251.55 1105.07 251.55C1091.27 251.55 1078.97 255 1068.17 261.9C1057.67 268.8 1049.27 278.25 1042.97 290.25C1036.97 302.25 1033.97 315.9 1033.97 331.2C1033.97 346.8 1036.97 360.75 1042.97 373.05C1049.27 385.05 1057.67 394.5 1068.17 401.4C1078.97 408.3 1091.27 411.75 1105.07 411.75ZM1316.04 450V153.45H1362.39V450H1316.04ZM1266.99 258.75V213.75H1417.29V258.75H1266.99ZM1548.19 454.5C1528.69 454.5 1510.84 449.1 1494.64 438.3C1478.74 427.5 1465.99 412.8 1456.39 394.2C1446.79 375.6 1441.99 354.6 1441.99 331.2C1441.99 307.5 1446.79 286.5 1456.39 268.2C1466.29 249.6 1479.49 235.05 1495.99 224.55C1512.79 214.05 1531.54 208.8 1552.24 208.8C1564.54 208.8 1575.79 210.6 1585.99 214.2C1596.19 217.8 1605.04 222.9 1612.54 229.5C1620.34 235.8 1626.64 243.15 1631.44 251.55C1636.54 259.95 1639.69 268.95 1640.89 278.55L1630.54 274.95V213.75H1677.34V450H1630.54V393.75L1641.34 390.6C1639.54 398.7 1635.79 406.65 1630.09 414.45C1624.69 421.95 1617.64 428.7 1608.94 434.7C1600.54 440.7 1591.09 445.5 1580.59 449.1C1570.39 452.7 1559.59 454.5 1548.19 454.5ZM1560.34 411.75C1574.44 411.75 1586.89 408.3 1597.69 401.4C1608.49 394.5 1616.89 385.05 1622.89 373.05C1629.19 360.75 1632.34 346.8 1632.34 331.2C1632.34 315.9 1629.19 302.25 1622.89 290.25C1616.89 278.25 1608.49 268.8 1597.69 261.9C1586.89 255 1574.44 251.55 1560.34 251.55C1546.54 251.55 1534.24 255 1523.44 261.9C1512.94 268.8 1504.54 278.25 1498.24 290.25C1492.24 302.25 1489.24 315.9 1489.24 331.2C1489.24 346.8 1492.24 360.75 1498.24 373.05C1504.54 385.05 1512.94 394.5 1523.44 401.4C1534.24 408.3 1546.54 411.75 1560.34 411.75ZM1742.06 450V213.75H1788.41V262.35L1780.31 267.75C1783.31 257.25 1789.16 247.65 1797.86 238.95C1806.56 229.95 1816.91 222.75 1828.91 217.35C1840.91 211.65 1853.21 208.8 1865.81 208.8C1883.81 208.8 1898.81 212.4 1910.81 219.6C1922.81 226.5 1931.81 237.15 1937.81 251.55C1943.81 265.95 1946.81 284.1 1946.81 306V450H1900.46V309.15C1900.46 295.65 1898.66 284.55 1895.06 275.85C1891.46 266.85 1885.91 260.4 1878.41 256.5C1870.91 252.3 1861.61 250.5 1850.51 251.1C1841.51 251.1 1833.26 252.6 1825.76 255.6C1818.26 258.3 1811.66 262.2 1805.96 267.3C1800.56 272.4 1796.21 278.4 1792.91 285.3C1789.91 291.9 1788.41 299.1 1788.41 306.9V450H1765.46C1761.56 450 1757.66 450 1753.76 450C1749.86 450 1745.96 450 1742.06 450Z" fill="black"/>
</svg>
