<svg width="2147" height="625" viewBox="0 0 2147 625" fill="none" xmlns="http://www.w3.org/2000/svg">
<path d="M190.755 96.5038C202.849 85.1799 221.834 85.8048 233.158 97.8997L499.29 382.15C510.614 394.245 509.989 413.229 497.894 424.553C485.799 435.877 466.814 435.252 455.491 423.157L189.359 138.907C178.035 126.812 178.66 107.828 190.755 96.5038Z" fill="#0E57C3"/>
<path d="M29.1531 244.055C41.2479 232.731 60.2326 233.356 71.5565 245.45L329.219 520.655C340.543 532.75 339.918 551.734 327.823 563.058C315.729 574.382 296.744 573.757 285.42 561.662L27.7572 286.458C16.4333 274.363 17.0582 255.378 29.1531 244.055Z" fill="#0E57C3"/>
<rect y="446.695" width="524.782" height="60" rx="30" transform="rotate(-43.1145 0 446.695)" fill="#0E57C3"/>
<path d="M336.359 415.564C325.035 403.469 325.66 384.484 337.755 373.16L457.013 261.504C469.107 250.18 488.092 250.805 499.416 262.9C510.74 274.995 510.115 293.98 498.02 305.304L378.763 416.96C366.668 428.284 347.683 427.659 336.359 415.564Z" fill="#0E57C3"/>
<path d="M702 500V150H839C864 150 886.5 154.167 906.5 162.5C926.833 170.833 944.167 182.833 958.5 198.5C972.833 214.167 983.833 232.667 991.5 254C999.167 275.333 1003 299 1003 325C1003 351 999.167 374.833 991.5 396.5C983.833 417.833 972.833 436.333 958.5 452C944.5 467.333 927.333 479.167 907 487.5C886.667 495.833 864 500 839 500H702ZM756 453.5L754.5 448H836.5C854.167 448 869.833 445.167 883.5 439.5C897.5 433.833 909.167 425.833 918.5 415.5C928.167 404.833 935.5 391.833 940.5 376.5C945.5 361.167 948 344 948 325C948 306 945.5 289 940.5 274C935.5 258.667 928.167 245.667 918.5 235C908.833 224.333 897.167 216.167 883.5 210.5C869.833 204.833 854.167 202 836.5 202H753L756 197.5V453.5ZM1164.02 505C1142.36 505 1122.52 499 1104.52 487C1086.86 475 1072.69 458.667 1062.02 438C1051.36 417.333 1046.02 394 1046.02 368C1046.02 341.667 1051.36 318.333 1062.02 298C1073.02 277.333 1087.69 261.167 1106.02 249.5C1124.69 237.833 1145.52 232 1168.52 232C1182.19 232 1194.69 234 1206.02 238C1217.36 242 1227.19 247.667 1235.52 255C1244.19 262 1251.19 270.167 1256.52 279.5C1262.19 288.833 1265.69 298.833 1267.02 309.5L1255.52 305.5V237.5H1307.52V500H1255.52V437.5L1267.52 434C1265.52 443 1261.36 451.833 1255.02 460.5C1249.02 468.833 1241.19 476.333 1231.52 483C1222.19 489.667 1211.69 495 1200.02 499C1188.69 503 1176.69 505 1164.02 505ZM1177.52 457.5C1193.19 457.5 1207.02 453.667 1219.02 446C1231.02 438.333 1240.36 427.833 1247.02 414.5C1254.02 400.833 1257.52 385.333 1257.52 368C1257.52 351 1254.02 335.833 1247.02 322.5C1240.36 309.167 1231.02 298.667 1219.02 291C1207.02 283.333 1193.19 279.5 1177.52 279.5C1162.19 279.5 1148.52 283.333 1136.52 291C1124.86 298.667 1115.52 309.167 1108.52 322.5C1101.86 335.833 1098.52 351 1098.52 368C1098.52 385.333 1101.86 400.833 1108.52 414.5C1115.52 427.833 1124.86 438.333 1136.52 446C1148.52 453.667 1162.19 457.5 1177.52 457.5ZM1411.93 500V170.5H1463.43V500H1411.93ZM1357.43 287.5V237.5H1524.43V287.5H1357.43ZM1669.88 505C1648.22 505 1628.38 499 1610.38 487C1592.72 475 1578.55 458.667 1567.88 438C1557.22 417.333 1551.88 394 1551.88 368C1551.88 341.667 1557.22 318.333 1567.88 298C1578.88 277.333 1593.55 261.167 1611.88 249.5C1630.55 237.833 1651.38 232 1674.38 232C1688.05 232 1700.55 234 1711.88 238C1723.22 242 1733.05 247.667 1741.38 255C1750.05 262 1757.05 270.167 1762.38 279.5C1768.05 288.833 1771.55 298.833 1772.88 309.5L1761.38 305.5V237.5H1813.38V500H1761.38V437.5L1773.38 434C1771.38 443 1767.22 451.833 1760.88 460.5C1754.88 468.833 1747.05 476.333 1737.38 483C1728.05 489.667 1717.55 495 1705.88 499C1694.55 503 1682.55 505 1669.88 505ZM1683.38 457.5C1699.05 457.5 1712.88 453.667 1724.88 446C1736.88 438.333 1746.22 427.833 1752.88 414.5C1759.88 400.833 1763.38 385.333 1763.38 368C1763.38 351 1759.88 335.833 1752.88 322.5C1746.22 309.167 1736.88 298.667 1724.88 291C1712.88 283.333 1699.05 279.5 1683.38 279.5C1668.05 279.5 1654.38 283.333 1642.38 291C1630.72 298.667 1621.38 309.167 1614.38 322.5C1607.72 335.833 1604.38 351 1604.38 368C1604.38 385.333 1607.72 400.833 1614.38 414.5C1621.38 427.833 1630.72 438.333 1642.38 446C1654.38 453.667 1668.05 457.5 1683.38 457.5ZM1885.29 500V237.5H1936.79V291.5L1927.79 297.5C1931.12 285.833 1937.62 275.167 1947.29 265.5C1956.96 255.5 1968.46 247.5 1981.79 241.5C1995.12 235.167 2008.79 232 2022.79 232C2042.79 232 2059.46 236 2072.79 244C2086.12 251.667 2096.12 263.5 2102.79 279.5C2109.46 295.5 2112.79 315.667 2112.79 340V500H2061.29V343.5C2061.29 328.5 2059.29 316.167 2055.29 306.5C2051.29 296.5 2045.12 289.333 2036.79 285C2028.46 280.333 2018.12 278.333 2005.79 279C1995.79 279 1986.62 280.667 1978.29 284C1969.96 287 1962.62 291.333 1956.29 297C1950.29 302.667 1945.46 309.333 1941.79 317C1938.46 324.333 1936.79 332.333 1936.79 341V500H1911.29C1906.96 500 1902.62 500 1898.29 500C1893.96 500 1889.62 500 1885.29 500Z" fill="black"/>
</svg>
